<svg xmlns="http://www.w3.org/2000/svg" width="292.6411437988281" height="239.341064453125" viewBox="-63.28899383544922 -24.790056228637695 292.6411437988281 239.341064453125"><title>Neo4j Graph Visualization</title><desc>Created using Neo4j (http://www.neo4j.com/)</desc><g class="layer relationships"><g class="relationship" transform="translate(98.20950609080406 181.21533261356987) rotate(339.1929268672701)"><path class="outline" fill="#A5ABB6" stroke="none" d="M 17.324116139070416,18.03122292025696 L 18.031222920256962,17.324116139070412 A 49.182809063702095 49.182809063702095 0 0 0 34.315823555845284,28.120310980753104 L 33.93982028309186,29.046929315818154 A 50.182809063702095 50.182809063702095 0 0 1 17.324116139070416,18.03122292025696 Z M 67.58419147169869,30.50493137392919 L 67.28975855691428,29.549259223716803 A 49.182809063702095 49.182809063702095 0 0 0 84.44727661033312,20.20230168841235 L 82.51742206446829,17.905420883537 L 90.12830757935308,16.082121215540297 L 87.02041600481957,23.26480942824615 L 85.09056145895474,20.9679286233708 A 50.182809063702095 50.182809063702095 0 0 1 67.58419147169869,30.50493137392919"/><text text-anchor="middle" pointer-events="none" font-size="8px" fill="#000000" x="50.65770072956133" y="35.18284128926168" font-family="sans-serif">ROUTE</text></g><g class="relationship" transform="translate(200.3521642337975 142.40054695063793) rotate(252.75128340577288)"><path class="outline" fill="#A5ABB6" stroke="none" d="M 25 0.5 L 33.941039767205595 0.5 L 33.941039767205595 -0.5 L 25 -0.5 Z M 67.9410397672056 0.5 L 76.88207953441119 0.5 L 76.88207953441119 3.5 L 83.88207953441119 0 L 76.88207953441119 -3.5 L 76.88207953441119 -0.5 L 67.9410397672056 -0.5 Z"/><text text-anchor="middle" pointer-events="none" font-size="8px" fill="#000000" x="50.941039767205595" y="3" transform="rotate(180 50.941039767205595 0)" font-family="sans-serif">ROUTE</text></g><g class="relationship" transform="translate(168.0664301085053 38.41526618586436) rotate(519.7209111569637)"><path class="outline" fill="#A5ABB6" stroke="none" d="M 5.987513214418485,24.277555179777966 L 6.953439040707552,24.018736134675446 A 46.410787383953014 46.410787383953014 0 0 0 32.67679814405848,54.30238115518992 L 32.265126200396814,55.21371326304184 A 47.410787383953014 47.410787383953014 0 0 1 5.987513214418485,24.277555179777966 Z M 65.81594867990437,57.29309581326008 L 65.51995841564279,56.33790485671665 A 46.410787383953014 46.410787383953014 0 0 0 94.78587962803299,29.462335748721166 L 92.00615546095563,28.334003548096703 L 97.88194212400298,23.164368058978056 L 98.49217851746948,30.966778682887117 L 95.71245435039212,29.838446482262654 A 47.410787383953014 47.410787383953014 0 0 1 65.81594867990437,57.29309581326008"/><text text-anchor="middle" pointer-events="none" font-size="8px" fill="#000000" x="48.880990662836545" y="61.82769064162876" transform="rotate(180 48.880990662836545 58.82769064162876)" font-family="sans-serif">ROUTE</text></g><g class="relationship" transform="translate(67.43170956022173 75.59943108437929) rotate(192.84948406629275)"><path class="outline" fill="#A5ABB6" stroke="none" d="M 25 0.5 L 31.666728308744872 0.5 L 31.666728308744872 -0.5 L 25 -0.5 Z M 65.66672830874487 0.5 L 72.33345661748974 0.5 L 72.33345661748974 3.5 L 79.33345661748974 0 L 72.33345661748974 -3.5 L 72.33345661748974 -0.5 L 65.66672830874487 -0.5 Z"/><text text-anchor="middle" pointer-events="none" font-size="8px" fill="#000000" x="48.66672830874487" y="3" transform="rotate(180 48.66672830874487 0)" font-family="sans-serif">ROUTE</text></g><g class="relationship" transform="translate(67.43170956022173 75.59943108437929) rotate(339.72091115696367)"><path class="outline" fill="#A5ABB6" stroke="none" d="M 17.324116139070416,-18.03122292025696 L 18.031222920256962,-17.324116139070412 A 47.731962372621226 47.731962372621226 0 0 1 33.347489013127564,-27.60068225041485 L 32.96126294439327,-28.523086404693252 A 48.731962372621226 48.731962372621226 0 0 0 17.324116139070416,-18.03122292025696 Z M 66.57418889508818,-30.005478694851732 L 66.27066383716604,-29.052655238374427 A 47.731962372621226 47.731962372621226 0 0 1 82.43213776243954,-20.16431576290683 L 80.50579832159092,-17.864486126035654 L 88.11946348861372,-16.05282867373856 L 85.00059035023772,-23.230755278735064 L 83.0742509093891,-20.930925641863887 A 48.731962372621226 48.731962372621226 0 0 0 66.57418889508818,-30.005478694851732"/><text text-anchor="middle" pointer-events="none" font-size="8px" fill="#000000" x="49.657763902593466" y="-28.757647608602376" font-family="sans-serif">ROUTE</text></g><g class="relationship" transform="translate(98.20950609080406 181.21533261356987) rotate(339.1929268672701)"><path class="outline" fill="#A5ABB6" stroke="none" d="M 24.018736134675446,6.953439040707552 L 24.277555179777966,5.987513214418485 A 110.23595862477764 110.23595862477764 0 0 0 34.253124713857666,8.170794568248581 L 34.08479855019354,9.156525922434966 A 111.23595862477764 111.23595862477764 0 0 1 24.018736134675446,6.953439040707552 Z M 68.10017422614042,9.687651873637947 L 67.96270560818462,8.697145750952515 A 110.23595862477764 110.23595862477764 0 0 0 78.00157627823496,6.8263756770942745 L 77.31596908076006,3.9057691012661278 L 84.93059282141311,5.713393312290859 L 78.9157192082015,10.72051777819847 L 78.23011201072659,7.799911202370323 A 111.23595862477764 111.23595862477764 0 0 1 68.10017422614042,9.687651873637947"/><text text-anchor="middle" pointer-events="none" font-size="8px" fill="#000000" x="51.0798680595309" y="13.230215836640568" font-family="sans-serif">ROUTE</text></g><g class="relationship" transform="translate(98.20950609080406 181.21533261356987) rotate(339.1929268672701)"><path class="outline" fill="#A5ABB6" stroke="none" d="M 24.018736134675446,-6.953439040707552 L 24.277555179777966,-5.987513214418485 A 110.23595862477764 110.23595862477764 0 0 1 34.25312471385763,-8.170794568248581 L 34.084798550193504,-9.156525922434952 A 111.23595862477764 111.23595862477764 0 0 0 24.018736134675446,-6.953439040707552 Z M 68.10017422614041,-9.687651873637947 L 67.96270560818462,-8.697145750952515 A 110.23595862477764 110.23595862477764 0 0 1 78.00157627823496,-6.8263756770942745 L 77.31596908076006,-3.9057691012661278 L 84.93059282141311,-5.713393312290859 L 78.9157192082015,-10.72051777819847 L 78.23011201072659,-7.799911202370323 A 111.23595862477764 111.23595862477764 0 0 0 68.10017422614041,-9.687651873637947"/><text text-anchor="middle" pointer-events="none" font-size="8px" fill="#000000" x="51.07986805953088" y="-7.230215836640568" font-family="sans-serif">ROUTE</text></g><g class="relationship" transform="translate(98.20950609080406 181.21533261356987) rotate(339.1929268672701)"><path class="outline" fill="#A5ABB6" stroke="none" d="M 17.324116139070416,-18.03122292025696 L 18.031222920256962,-17.324116139070412 A 49.182809063702095 49.182809063702095 0 0 1 34.31582355584527,-28.120310980753104 L 33.939820283091855,-29.046929315818154 A 50.182809063702095 50.182809063702095 0 0 0 17.324116139070416,-18.03122292025696 Z M 67.58419147169866,-30.50493137392919 L 67.28975855691426,-29.54925922371681 A 49.182809063702095 49.182809063702095 0 0 1 84.44727661033312,-20.20230168841235 L 82.51742206446829,-17.905420883537 L 90.12830757935308,-16.082121215540297 L 87.02041600481957,-23.26480942824615 L 85.09056145895474,-20.9679286233708 A 50.182809063702095 50.182809063702095 0 0 0 67.58419147169866,-30.50493137392919"/><text text-anchor="middle" pointer-events="none" font-size="8px" fill="#000000" x="50.65770072956131" y="-29.18284128926168" font-family="sans-serif">ROUTE</text></g><g class="relationship" transform="translate(168.0664301085053 38.41526618586436) rotate(519.7209111569637)"><path class="outline" fill="#A5ABB6" stroke="none" d="M 24.018736134675446,6.953439040707552 L 24.277555179777966,5.987513214418485 A 106.27217175075158 106.27217175075158 0 0 0 33.269278439931604,7.983615330508599 L 33.09506972236848,8.968324080710914 A 107.27217175075158 107.27217175075158 0 0 1 24.018736134675446,6.953439040707552 Z M 67.10585485427153,9.508618077763089 L 66.96301223804673,8.518872662522355 A 106.27217175075158 106.27217175075158 0 0 0 76.01360227205276,6.809390026928305 L 75.32958166685789,3.88841145602628 L 82.94322237168997,5.700171709957273 L 76.92562974564594,10.70402812146434 L 76.24160914045106,7.783049550562314 A 107.27217175075158 107.27217175075158 0 0 1 67.10585485427153,9.508618077763089"/><text text-anchor="middle" pointer-events="none" font-size="8px" fill="#000000" x="50.086852652116015" y="13.095179492031733" transform="rotate(180 50.086852652116015 10.095179492031733)" font-family="sans-serif">ROUTE</text></g><g class="relationship" transform="translate(168.0664301085053 38.41526618586436) rotate(519.7209111569637)"><path class="outline" fill="#A5ABB6" stroke="none" d="M 24.018736134675446,-6.953439040707552 L 24.277555179777966,-5.987513214418485 A 106.27217175075158 106.27217175075158 0 0 1 33.269278439931625,-7.983615330508599 L 33.09506972236849,-8.968324080710914 A 107.27217175075158 107.27217175075158 0 0 0 24.018736134675446,-6.953439040707552 Z M 67.10585485427148,-9.508618077763089 L 66.9630122380467,-8.518872662522355 A 106.27217175075158 106.27217175075158 0 0 1 76.01360227205276,-6.809390026928305 L 75.32958166685789,-3.88841145602628 L 82.94322237168997,-5.700171709957273 L 76.92562974564594,-10.70402812146434 L 76.24160914045106,-7.783049550562314 A 107.27217175075158 107.27217175075158 0 0 0 67.10585485427148,-9.508618077763089"/><text text-anchor="middle" pointer-events="none" font-size="8px" fill="#000000" x="50.08685265211601" y="-7.095179492031733" transform="rotate(180 50.08685265211601 -10.095179492031733)" font-family="sans-serif">ROUTE</text></g><g class="relationship" transform="translate(168.0664301085053 38.41526618586436) rotate(519.7209111569637)"><path class="outline" fill="#A5ABB6" stroke="none" d="M 17.324116139070416,-18.03122292025696 L 18.031222920256962,-17.324116139070412 A 47.731962372621226 47.731962372621226 0 0 1 33.347489013127564,-27.60068225041485 L 32.96126294439327,-28.523086404693252 A 48.731962372621226 48.731962372621226 0 0 0 17.324116139070416,-18.03122292025696 Z M 66.57418889508818,-30.005478694851732 L 66.27066383716604,-29.052655238374427 A 47.731962372621226 47.731962372621226 0 0 1 82.43213776243954,-20.16431576290683 L 80.50579832159092,-17.864486126035654 L 88.11946348861372,-16.05282867373856 L 85.00059035023772,-23.230755278735064 L 83.0742509093891,-20.930925641863887 A 48.731962372621226 48.731962372621226 0 0 0 66.57418889508818,-30.005478694851732"/><text text-anchor="middle" pointer-events="none" font-size="8px" fill="#000000" x="49.657763902593466" y="-28.757647608602376" transform="rotate(180 49.657763902593466 -31.757647608602376)" font-family="sans-serif">ROUTE</text></g><g class="relationship" transform="translate(67.43170956022173 75.59943108437929) rotate(339.72091115696367)"><path class="outline" fill="#A5ABB6" stroke="none" d="M 5.987513214418485,24.277555179777966 L 6.953439040707552,24.018736134675446 A 46.410787383953014 46.410787383953014 0 0 0 32.67679814405848,54.30238115518992 L 32.265126200396814,55.21371326304184 A 47.410787383953014 47.410787383953014 0 0 1 5.987513214418485,24.277555179777966 Z M 65.81594867990437,57.29309581326008 L 65.51995841564279,56.33790485671665 A 46.410787383953014 46.410787383953014 0 0 0 94.78587962803299,29.462335748721166 L 92.00615546095563,28.334003548096703 L 97.88194212400298,23.164368058978056 L 98.49217851746948,30.966778682887117 L 95.71245435039212,29.838446482262654 A 47.410787383953014 47.410787383953014 0 0 1 65.81594867990437,57.29309581326008"/><text text-anchor="middle" pointer-events="none" font-size="8px" fill="#000000" x="48.880990662836545" y="61.82769064162876" font-family="sans-serif">ROUTE</text></g><g class="relationship" transform="translate(67.43170956022173 75.59943108437929) rotate(433.7532158586391)"><path class="outline" fill="#A5ABB6" stroke="none" d="M 25 0.5 L 34.50452575720839 0.5 L 34.50452575720839 -0.5 L 25 -0.5 Z M 68.5045257572084 0.5 L 78.00905151441678 0.5 L 78.00905151441678 3.5 L 85.00905151441678 0 L 78.00905151441678 -3.5 L 78.00905151441678 -0.5 L 68.5045257572084 -0.5 Z"/><text text-anchor="middle" pointer-events="none" font-size="8px" fill="#000000" x="51.50452575720839" y="3" font-family="sans-serif">ROUTE</text></g></g><g class="layer nodes"><g class="node" transform="translate(98.20950609080406,181.21533261356987)"><circle class="outline" cx="0" cy="0" r="25" fill="#F79767" stroke="#f36924" stroke-width="2px"/><text text-anchor="middle" pointer-events="none" font-family="sans-serif" dy="1.5625" font-size="25" fill="#FFFFFF"/><text text-anchor="middle" pointer-events="none" y="5" font-size="10px" fill="#FFFFFF" font-family="sans-serif"> LAX</text></g><g class="node" transform="translate(200.3521642337975,142.40054695063793)"><circle class="outline" cx="0" cy="0" r="25" fill="#F79767" stroke="#f36924" stroke-width="2px"/><text text-anchor="middle" pointer-events="none" font-family="sans-serif" dy="1.5625" font-size="25" fill="#FFFFFF"/><text text-anchor="middle" pointer-events="none" y="5" font-size="10px" fill="#FFFFFF" font-family="sans-serif"> SMF</text></g><g class="node" transform="translate(168.0664301085053,38.41526618586436)"><circle class="outline" cx="0" cy="0" r="25" fill="#F79767" stroke="#f36924" stroke-width="2px"/><text text-anchor="middle" pointer-events="none" font-family="sans-serif" dy="1.5625" font-size="25" fill="#FFFFFF"/><text text-anchor="middle" pointer-events="none" y="5" font-size="10px" fill="#FFFFFF" font-family="sans-serif"> DEN</text></g><g class="node" transform="translate(67.43170956022173,75.59943108437929)"><circle class="outline" cx="0" cy="0" r="25" fill="#F79767" stroke="#f36924" stroke-width="2px"/><text text-anchor="middle" pointer-events="none" font-family="sans-serif" dy="1.5625" font-size="25" fill="#FFFFFF"/><text text-anchor="middle" pointer-events="none" y="5" font-size="10px" fill="#FFFFFF" font-family="sans-serif"> SFO</text></g><g class="node" transform="translate(-34.28899192103703,52.39664978742582)"><circle class="outline" cx="0" cy="0" r="25" fill="#F79767" stroke="#f36924" stroke-width="2px"/><text text-anchor="middle" pointer-events="none" font-family="sans-serif" dy="1.5625" font-size="25" fill="#FFFFFF"/><text text-anchor="middle" pointer-events="none" y="5" font-size="10px" fill="#FFFFFF" font-family="sans-serif"> RNO</text></g></g></svg>