<svg xmlns="http://www.w3.org/2000/svg" width="163.4411163330078" height="196.31277465820312" viewBox="24.254714965820312 -4.557719707489014 163.4411163330078 196.31277465820312"><title>Neo4j Graph Visualization</title><desc>Created using Neo4j (http://www.neo4j.com/)</desc><g class="layer relationships"><g class="relationship" transform="translate(134.1137036470371 162.75505571237946) rotate(283.3732612848921)"><path class="outline" fill="#A5ABB6" stroke="none" d="M 24.018736134675446,-6.953439040707552 L 24.277555179777966,-5.987513214418485 A 104.26512576195417 104.26512576195417 0 0 1 32.771906469850975,-7.8874288954104514 L 32.59455619225818,-8.871576688700543 A 105.26512576195417 105.26512576195417 0 0 0 24.018736134675446,-6.953439040707552 Z M 66.6027336180216,-9.416626612904693 L 66.4570122498096,-8.427300942133726 A 104.26512576195417 104.26512576195417 0 0 1 75.00788520292905,-6.800569503433934 L 74.32468850904623,-3.8793981155370196 L 81.93781789033565,-5.6933057823568385 L 75.91881412810615,-10.695464687296486 L 75.23561743422333,-7.774293299399572 A 105.26512576195417 105.26512576195417 0 0 0 66.6027336180216,-9.416626612904693"/><text text-anchor="middle" pointer-events="none" font-size="8px" fill="#000000" x="49.58449773942207" y="-7.026808537709854" font-family="sans-serif">ROUTE</text></g><g class="relationship" transform="translate(158.6958309477695 59.35606422438225) rotate(187.21289007847548)"><path class="outline" fill="#A5ABB6" stroke="none" d="M 12.066987298107785,21.900635094610966 L 12.933012701892222,21.400635094610966 A 44.26082518610422 44.26082518610422 0 0 0 32.61362819326436,39.409777070595105 L 32.19225368355207,40.31666379040344 A 45.26082518610422 45.26082518610422 0 0 1 12.066987298107785,21.900635094610966 Z M 65.70042147628713,42.16698659231052 L 65.38146110136232,41.21921854092462 A 44.26082518610422 44.26082518610422 0 0 0 86.92530428600377,25.48649335849143 L 84.50818085254737,23.709553768230705 L 91.47435056885486,20.142695278803295 L 90.1481355306123,27.855746145505734 L 87.7310120971559,26.07880655524501 A 45.26082518610422 45.26082518610422 0 0 1 65.70042147628713,42.16698659231052"/><text text-anchor="middle" pointer-events="none" font-size="8px" fill="#000000" x="48.79607638296999" y="46.96295979280886" transform="rotate(180 48.79607638296999 43.96295979280886)" font-family="sans-serif">ROUTE</text></g><g class="relationship" transform="translate(158.6958309477695 59.35606422438225) rotate(187.21289007847548)"><path class="outline" fill="#A5ABB6" stroke="none" d="M 21.40063509461097,12.933012701892217 L 21.90063509461097,12.06698729810778 A 58.72675322181924 58.72675322181924 0 0 0 32.89221664495066,16.987233341991235 L 32.579381453957254,17.937040766302147 A 59.72675322181924 59.72675322181924 0 0 1 21.40063509461097,12.933012701892217 Z M 66.3811452252337,18.990108094067807 L 66.12804033162647,18.022669252159922 A 58.72675322181924 58.72675322181924 0 0 0 77.4045815576867,13.796169034830879 L 76.06921555745357,11.109759228896312 L 83.8954321049062,11.128050001942688 L 79.18506955799752,17.378048776076966 L 77.8497035577644,14.6916389701424 A 59.72675322181924 59.72675322181924 0 0 1 66.3811452252337,18.990108094067807"/><text text-anchor="middle" pointer-events="none" font-size="8px" fill="#000000" x="49.419743648684324" y="23.406158956123853" transform="rotate(180 49.419743648684324 20.406158956123853)" font-family="sans-serif">ROUTE</text></g><g class="relationship" transform="translate(158.6958309477695 59.35606422438225) rotate(463.3732612848921)"><path class="outline" fill="#A5ABB6" stroke="none" d="M 24.018736134675446,-6.953439040707552 L 24.277555179777966,-5.987513214418485 A 104.26512576195417 104.26512576195417 0 0 1 32.771906469850975,-7.8874288954104514 L 32.59455619225818,-8.871576688700543 A 105.26512576195417 105.26512576195417 0 0 0 24.018736134675446,-6.953439040707552 Z M 66.6027336180216,-9.416626612904693 L 66.4570122498096,-8.427300942133726 A 104.26512576195417 104.26512576195417 0 0 1 75.00788520292905,-6.800569503433934 L 74.32468850904623,-3.8793981155370196 L 81.93781789033565,-5.6933057823568385 L 75.91881412810615,-10.695464687296486 L 75.23561743422333,-7.774293299399572 A 105.26512576195417 105.26512576195417 0 0 0 66.6027336180216,-9.416626612904693"/><text text-anchor="middle" pointer-events="none" font-size="8px" fill="#000000" x="49.58449773942207" y="-7.026808537709854" transform="rotate(180 49.58449773942207 -10.026808537709854)" font-family="sans-serif">ROUTE</text></g><g class="relationship" transform="translate(158.6958309477695 59.35606422438225) rotate(187.21289007847548)"><path class="outline" fill="#A5ABB6" stroke="none" d="M 25 0.5 L 32.64109024384713 0.5 L 32.64109024384713 -0.5 L 25 -0.5 Z M 66.64109024384713 0.5 L 74.28218048769426 0.5 L 74.28218048769426 3.5 L 81.28218048769426 0 L 74.28218048769426 -3.5 L 74.28218048769426 -0.5 L 66.64109024384713 -0.5 Z"/><text text-anchor="middle" pointer-events="none" font-size="8px" fill="#000000" x="49.64109024384713" y="3" transform="rotate(180 49.64109024384713 0)" font-family="sans-serif">ROUTE</text></g><g class="relationship" transform="translate(158.6958309477695 59.35606422438225) rotate(187.21289007847548)"><path class="outline" fill="#A5ABB6" stroke="none" d="M 21.40063509461097,-12.933012701892217 L 21.90063509461097,-12.06698729810778 A 58.72675322181924 58.72675322181924 0 0 1 32.89221664495066,-16.987233341991235 L 32.579381453957254,-17.937040766302147 A 59.72675322181924 59.72675322181924 0 0 0 21.40063509461097,-12.933012701892217 Z M 66.38114522523367,-18.990108094067814 L 66.12804033162645,-18.022669252159922 A 58.72675322181924 58.72675322181924 0 0 1 77.4045815576867,-13.796169034830879 L 76.06921555745357,-11.109759228896312 L 83.8954321049062,-11.128050001942688 L 79.18506955799752,-17.378048776076966 L 77.8497035577644,-14.6916389701424 A 59.72675322181924 59.72675322181924 0 0 0 66.38114522523367,-18.990108094067814"/><text text-anchor="middle" pointer-events="none" font-size="8px" fill="#000000" x="49.41974364868432" y="-17.406158956123853" transform="rotate(180 49.41974364868432 -20.406158956123853)" font-family="sans-serif">ROUTE</text></g><g class="relationship" transform="translate(158.6958309477695 59.35606422438225) rotate(187.21289007847548)"><path class="outline" fill="#A5ABB6" stroke="none" d="M 12.066987298107785,-21.900635094610966 L 12.933012701892222,-21.400635094610966 A 44.26082518610422 44.26082518610422 0 0 1 32.61362819326436,-39.4097770705951 L 32.19225368355207,-40.31666379040343 A 45.26082518610422 45.26082518610422 0 0 0 12.066987298107785,-21.900635094610966 Z M 65.70042147628712,-42.16698659231053 L 65.38146110136229,-41.21921854092463 A 44.26082518610422 44.26082518610422 0 0 1 86.92530428600377,-25.48649335849143 L 84.50818085254737,-23.709553768230705 L 91.47435056885486,-20.142695278803295 L 90.1481355306123,-27.855746145505734 L 87.7310120971559,-26.07880655524501 A 45.26082518610422 45.26082518610422 0 0 0 65.70042147628712,-42.16698659231053"/><text text-anchor="middle" pointer-events="none" font-size="8px" fill="#000000" x="48.79607638296998" y="-40.96295979280885" transform="rotate(180 48.79607638296998 -43.96295979280885)" font-family="sans-serif">ROUTE</text></g></g><g class="layer nodes"><g class="node" transform="translate(134.1137036470371,162.75505571237946)"><circle class="outline" cx="0" cy="0" r="25" fill="#F79767" stroke="#f36924" stroke-width="2px"/><text text-anchor="middle" pointer-events="none" font-family="sans-serif" dy="1.5625" font-size="25" fill="#FFFFFF"/><text text-anchor="middle" pointer-events="none" y="5" font-size="10px" fill="#FFFFFF" font-family="sans-serif"> MSN</text></g><g class="node" transform="translate(158.6958309477695,59.35606422438225)"><circle class="outline" cx="0" cy="0" r="25" fill="#F79767" stroke="#f36924" stroke-width="2px"/><text text-anchor="middle" pointer-events="none" font-family="sans-serif" dy="1.5625" font-size="25" fill="#FFFFFF"/><text text-anchor="middle" pointer-events="none" y="5" font-size="10px" fill="#FFFFFF" font-family="sans-serif"> ORD</text></g><g class="node" transform="translate(53.25471667948727,46.01165299413814)"><circle class="outline" cx="0" cy="0" r="25" fill="#F79767" stroke="#f36924" stroke-width="2px"/><text text-anchor="middle" pointer-events="none" font-family="sans-serif" dy="1.5625" font-size="25" fill="#FFFFFF"/><text text-anchor="middle" pointer-events="none" y="5" font-size="10px" fill="#FFFFFF" font-family="sans-serif"> GRR</text></g></g></svg>