<svg xmlns="http://www.w3.org/2000/svg" width="160.4528045654297" height="242.8164520263672" viewBox="0.7375354766845703 -21.004138946533203 160.4528045654297 242.8164520263672"><title>Neo4j Graph Visualization</title><desc>Created using Neo4j (http://www.neo4j.com/)</desc><g class="layer relationships"><g class="relationship" transform="translate(132.1903415949653 7.995860884621036) rotate(519.7740049448607)"><path class="outline" fill="#A5ABB6" stroke="none" d="M 21.40063509461097,12.933012701892217 L 21.90063509461097,12.06698729810778 A 59.96305219479245 59.96305219479245 0 0 0 40.51547921008816,19.01331468164657 L 40.32591777907571,19.995183544516003 A 60.96305219479245 60.96305219479245 0 0 1 21.40063509461097,12.933012701892217 Z M 59.729566024498304,20.59332876485508 L 59.60084207531977,19.601648299731416 A 59.96305219479245 59.96305219479245 0 0 0 78.60819594957495,13.815078999908541 L 77.27107081437934,11.129544346840717 L 85.09729766259915,11.142709459963422 L 80.39102946316909,17.39579187066564 L 79.05390432797348,14.710257217597816 A 60.96305219479245 60.96305219479245 0 0 1 59.729566024498304,20.59332876485508"/><text text-anchor="middle" pointer-events="none" font-size="8px" fill="#000000" x="50.01918604964039" y="23.571805384952192" transform="rotate(180 50.01918604964039 20.571805384952192)" font-family="sans-serif">trek</text></g><g class="relationship" transform="translate(31.341006552863323 45.15314926150162) rotate(450.8608647200369)"><path class="outline" fill="#A5ABB6" stroke="none" d="M 25 0.5 L 40.194423967262956 0.5 L 40.194423967262956 -0.5 L 25 -0.5 Z M 59.530361467262956 0.5 L 74.72478543452591 0.5 L 74.72478543452591 3.5 L 81.72478543452591 0 L 74.72478543452591 -3.5 L 74.72478543452591 -0.5 L 59.530361467262956 -0.5 Z"/><text text-anchor="middle" pointer-events="none" font-size="8px" fill="#000000" x="49.862392717262956" y="3" transform="rotate(180 49.862392717262956 0)" font-family="sans-serif">trek</text></g><g class="relationship" transform="translate(29.73753511814644 151.86588845136424) rotate(382.4040825123451)"><path class="outline" fill="#A5ABB6" stroke="none" d="M 25 0.5 L 40.54829198990296 0.5 L 40.54829198990296 -0.5 L 25 -0.5 Z M 59.88422948990296 0.5 L 75.43252147980591 0.5 L 75.43252147980591 3.5 L 82.43252147980591 0 L 75.43252147980591 -3.5 L 75.43252147980591 -0.5 L 59.88422948990296 -0.5 Z"/><text text-anchor="middle" pointer-events="none" font-size="8px" fill="#000000" x="50.21626073990296" y="3" font-family="sans-serif">trek</text></g><g class="relationship" transform="translate(132.1903415949653 7.995860884621036) rotate(519.7740049448607)"><path class="outline" fill="#A5ABB6" stroke="none" d="M 25 0.5 L 39.23251717741551 0.5 L 39.23251717741551 -0.5 L 25 -0.5 Z M 61.24423592741551 0.5 L 75.47675310483102 0.5 L 75.47675310483102 3.5 L 82.47675310483102 0 L 75.47675310483102 -3.5 L 75.47675310483102 -0.5 L 61.24423592741551 -0.5 Z"/><text text-anchor="middle" pointer-events="none" font-size="8px" fill="#000000" x="50.23837655241551" y="3" transform="rotate(180 50.23837655241551 0)" font-family="sans-serif">road</text></g><g class="relationship" transform="translate(132.1903415949653 7.995860884621036) rotate(519.7740049448607)"><path class="outline" fill="#A5ABB6" stroke="none" d="M 21.40063509461097,-12.933012701892217 L 21.90063509461097,-12.06698729810778 A 59.96305219479245 59.96305219479245 0 0 1 23.480961926178026,-12.947871797501136 L 23.00731693603365,-13.828587655943082 A 60.96305219479245 60.96305219479245 0 0 0 21.40063509461097,-12.933012701892217 Z M 77.39511080729162,-15.505169221296619 L 76.97661224633106,-14.596951761392916 A 59.96305219479245 59.96305219479245 0 0 1 78.60819594957495,-13.815078999908541 L 77.27107081437934,-11.129544346840717 L 85.09729766259915,-11.142709459963422 L 80.39102946316909,-17.39579187066564 L 79.05390432797348,-14.710257217597816 A 60.96305219479245 60.96305219479245 0 0 0 77.39511080729162,-15.505169221296619"/><text text-anchor="middle" pointer-events="none" font-size="8px" fill="#000000" x="50.01918604964039" y="-17.571805384952192" transform="rotate(180 50.01918604964039 -20.571805384952192)" font-family="sans-serif">PublicTrans…</text></g></g><g class="layer nodes"><g class="node" transform="translate(132.1903415949653,7.995860884621036)"><circle class="outline" cx="0" cy="0" r="25" fill="#F79767" stroke="#f36924" stroke-width="2px"/><text text-anchor="middle" pointer-events="none" font-family="sans-serif" dy="1.5625" font-size="25" fill="#FFFFFF"/><text text-anchor="middle" pointer-events="none" y="5" font-size="10px" fill="#FFFFFF" font-family="sans-serif"> Darjeeling</text></g><g class="node" transform="translate(129.06092941797488,192.81231706571066)"><circle class="outline" cx="0" cy="0" r="25" fill="#57C7E3" stroke="#23b3d7" stroke-width="2px"/><text text-anchor="middle" pointer-events="none" font-family="sans-serif" dy="1.5625" font-size="25" fill="#2A2C34"/><text text-anchor="middle" pointer-events="none" y="5" font-size="10px" fill="#2A2C34" font-family="sans-serif"> Sandak…</text></g><g class="node" transform="translate(31.341006552863323,45.15314926150162)"><circle class="outline" cx="0" cy="0" r="25" fill="#F79767" stroke="#f36924" stroke-width="2px"/><text text-anchor="middle" pointer-events="none" font-family="sans-serif" dy="1.5625" font-size="25" fill="#FFFFFF"/><text text-anchor="middle" pointer-events="none" y="5" font-size="10px" fill="#FFFFFF" font-family="sans-serif"> Rimbik</text></g><g class="node" transform="translate(29.73753511814644,151.86588845136424)"><circle class="outline" cx="0" cy="0" r="25" fill="#F16667" stroke="#eb2728" stroke-width="2px"/><text text-anchor="middle" pointer-events="none" font-family="sans-serif" dy="1.5625" font-size="25" fill="#FFFFFF"/><text text-anchor="middle" pointer-events="none" y="5" font-size="10px" fill="#FFFFFF" font-family="sans-serif"> BhikeBh…</text></g></g></svg>