<svg xmlns="http://www.w3.org/2000/svg" width="387.4766845703125" height="414.907470703125" viewBox="-91.73521423339844 -117.13505554199219 387.4766845703125 414.907470703125"><title>Neo4j Graph Visualization</title><desc>Created using Neo4j (http://www.neo4j.com/)</desc><g class="layer relationships"><g class="relationship" transform="translate(92.73957802406001 -88.1350554204781) rotate(383.42022437223557)"><path class="outline" fill="#A5ABB6" stroke="none" d="M 24.018736134675446,-6.953439040707552 L 24.277555179777966,-5.987513214418485 A 108.39017032757245 108.39017032757245 0 0 1 41.02215370597929,-9.08925282050744 L 40.91781913558141,-10.083795075728347 A 109.39017032757245 109.39017032757245 0 0 0 24.018736134675446,-6.953439040707552 Z M 60.31462966467068,-10.389094522146394 L 60.241646561359815,-9.391761344802376 A 108.39017032757245 108.39017032757245 0 0 1 77.07556716767957,-6.818536634877502 L 76.39069219616404,-3.8977582671488564 L 84.00486252096566,-5.707291429296049 L 77.98873379636693,-10.712907791849027 L 77.3038588248514,-7.7921294241203825 A 109.39017032757245 109.39017032757245 0 0 0 60.31462966467068,-10.389094522146394"/><text text-anchor="middle" pointer-events="none" font-size="8px" fill="#000000" x="50.61731219509667" y="-7.167333134349633" font-family="sans-serif">trek</text></g><g class="relationship" transform="translate(192.15821672609496 -45.07109774205224) rotate(408.9347497426841)"><path class="outline" fill="#A5ABB6" stroke="none" d="M 21.40063509461097,-12.933012701892217 L 21.90063509461097,-12.06698729810778 A 66.21947744147046 66.21947744147046 0 0 1 43.53571941447811,-19.936961418805836 L 43.36243724971004,-20.92183363964125 A 67.21947744147046 67.21947744147046 0 0 0 21.40063509461097,-12.933012701892217 Z M 62.76686905088963,-21.489702105615137 L 62.65147845978756,-20.496381909764324 A 66.21947744147046 66.21947744147046 0 0 1 84.7097700847757,-13.90508941320522 L 83.36427186807595,-11.223740023651937 L 91.19050169651666,-11.21248513916466 L 86.50376770704204,-17.480221932609595 L 85.15826949034229,-14.798872543056314 A 67.21947744147046 67.21947744147046 0 0 0 62.76686905088963,-21.489702105615137"/><text text-anchor="middle" pointer-events="none" font-size="8px" fill="#000000" x="53.058671550667576" y="-18.41016299065454" font-family="sans-serif">trek</text></g><g class="relationship" transform="translate(266.74146466523354 40.53003253357908) rotate(496.67976753402115)"><path class="outline" fill="#A5ABB6" stroke="none" d="M 21.40063509461097,12.933012701892217 L 21.90063509461097,12.06698729810778 A 66.86705061152232 66.86705061152232 0 0 0 43.849100108985624,20.031754631511816 L 43.67734047271706,21.016893518851504 A 67.86705061152232 67.86705061152232 0 0 1 21.40063509461097,12.933012701892217 Z M 63.08177237246538,21.58179461134283 L 62.96761370633384,20.588332081124875 A 66.86705061152232 66.86705061152232 0 0 0 85.3422546214744,13.913897342436833 L 83.99593708780118,11.232959241971985 L 91.82216311150458,11.219312780610139 L 87.13734466637202,17.488481476389964 L 85.7910271326988,14.807543375925118 A 67.86705061152232 67.86705061152232 0 0 1 63.08177237246538,21.58179461134283"/><text text-anchor="middle" pointer-events="none" font-size="8px" fill="#000000" x="53.373803885145854" y="24.49694453461845" transform="rotate(180 53.373803885145854 21.49694453461845)" font-family="sans-serif">trek</text></g><g class="relationship" transform="translate(183.68416791040445 118.85466280741032) rotate(471.9216668690668)"><path class="outline" fill="#A5ABB6" stroke="none" d="M 25 0.5 L 48.36230468672428 0.5 L 48.36230468672428 -0.5 L 25 -0.5 Z M 67.69824218672429 0.5 L 91.06054687344856 0.5 L 91.06054687344856 3.5 L 98.06054687344856 0 L 91.06054687344856 -3.5 L 91.06054687344856 -0.5 L 67.69824218672429 -0.5 Z"/><text text-anchor="middle" pointer-events="none" font-size="8px" fill="#000000" x="58.03027343672428" y="3" transform="rotate(180 58.03027343672428 0)" font-family="sans-serif">trek</text></g><g class="relationship" transform="translate(92.73957802406001 -88.1350554204781) rotate(383.42022437223557)"><path class="outline" fill="#A5ABB6" stroke="none" d="M 24.018736134675446,6.953439040707552 L 24.277555179777966,5.987513214418485 A 108.39017032757245 108.39017032757245 0 0 0 39.69856162932304,8.9421724583012 L 39.58201569259317,9.935357760564457 A 109.39017032757245 109.39017032757245 0 0 1 24.018736134675446,6.953439040707552 Z M 61.65444296708373,10.282770538448645 L 61.56921184095325,9.286409331286038 A 108.39017032757245 108.39017032757245 0 0 0 77.07556716767957,6.818536634877502 L 76.39069219616404,3.8977582671488564 L 84.00486252096566,5.707291429296049 L 77.98873379636693,10.712907791849027 L 77.3038588248514,7.7921294241203825 A 109.39017032757245 109.39017032757245 0 0 1 61.65444296708373,10.282770538448645"/><text text-anchor="middle" pointer-events="none" font-size="8px" fill="#000000" x="50.61731219509667" y="13.167333134349633" font-family="sans-serif">road</text></g><g class="relationship" transform="translate(192.15821672609496 -45.07109774205224) rotate(408.9347497426841)"><path class="outline" fill="#A5ABB6" stroke="none" d="M 25 0.5 L 42.261680596397 0.5 L 42.261680596397 -0.5 L 25 -0.5 Z M 64.273399346397 0.5 L 81.535079942794 0.5 L 81.535079942794 3.5 L 88.535079942794 0 L 81.535079942794 -3.5 L 81.535079942794 -0.5 L 64.273399346397 -0.5 Z"/><text text-anchor="middle" pointer-events="none" font-size="8px" fill="#000000" x="53.267539971397" y="3" font-family="sans-serif">road</text></g><g class="relationship" transform="translate(192.15821672609496 -45.07109774205224) rotate(408.9347497426841)"><path class="outline" fill="#A5ABB6" stroke="none" d="M 21.40063509461097,12.933012701892217 L 21.90063509461097,12.06698729810778 A 66.21947744147046 66.21947744147046 0 0 0 30.604059886109965,16.276942512147343 L 30.23549288932555,17.20654370022819 A 67.21947744147046 67.21947744147046 0 0 1 21.40063509461097,12.933012701892217 Z M 76.08861693125137,18.548430104148345 L 75.77504348619954,17.59886615445442 A 66.21947744147046 66.21947744147046 0 0 0 84.7097700847757,13.90508941320522 L 83.36427186807595,11.223740023651937 L 91.19050169651666,11.21248513916466 L 86.50376770704204,17.480221932609595 L 85.15826949034229,14.798872543056314 A 67.21947744147046 67.21947744147046 0 0 1 76.08861693125137,18.548430104148345"/><text text-anchor="middle" pointer-events="none" font-size="8px" fill="#000000" x="53.05867155066759" y="24.41016299065454" font-family="sans-serif">twowheeler</text></g><g class="relationship" transform="translate(266.74146466523354 40.53003253357908) rotate(496.67976753402115)"><path class="outline" fill="#A5ABB6" stroke="none" d="M 25 0.5 L 42.57579759935584 0.5 L 42.57579759935584 -0.5 L 25 -0.5 Z M 64.58751634935584 0.5 L 82.16331394871168 0.5 L 82.16331394871168 3.5 L 89.16331394871168 0 L 82.16331394871168 -3.5 L 82.16331394871168 -0.5 L 64.58751634935584 -0.5 Z"/><text text-anchor="middle" pointer-events="none" font-size="8px" fill="#000000" x="53.58165697435584" y="3" transform="rotate(180 53.58165697435584 0)" font-family="sans-serif">road</text></g><g class="relationship" transform="translate(266.74146466523354 40.53003253357908) rotate(496.67976753402115)"><path class="outline" fill="#A5ABB6" stroke="none" d="M 21.40063509461097,-12.933012701892217 L 21.90063509461097,-12.06698729810778 A 66.86705061152232 66.86705061152232 0 0 1 30.90688204125749,-16.403989136107796 L 30.541570903175,-17.334874613700435 A 67.86705061152232 67.86705061152232 0 0 0 21.40063509461097,-12.933012701892217 Z M 76.40949555576526,-18.67017991304776 L 76.09895701069085,-17.719619124868977 A 66.86705061152232 66.86705061152232 0 0 1 85.3422546214744,-13.913897342436833 L 83.99593708780118,-11.232959241971985 L 91.82216311150458,-11.219312780610139 L 87.13734466637202,-17.488481476389964 L 85.7910271326988,-14.807543375925118 A 67.86705061152232 67.86705061152232 0 0 0 76.40949555576526,-18.67017991304776"/><text text-anchor="middle" pointer-events="none" font-size="8px" fill="#000000" x="53.37380388514585" y="-18.49694453461845" transform="rotate(180 53.37380388514585 -21.49694453461845)" font-family="sans-serif">twowheeler</text></g><g class="relationship" transform="translate(92.73957802406001 -88.1350554204781) rotate(446.4046061981718)"><path class="outline" fill="#A5ABB6" stroke="none" d="M 21.40063509461097,12.933012701892217 L 21.90063509461097,12.06698729810778 A 64.21697318436681 64.21697318436681 0 0 0 22.848611769080343,12.603633182319413 L 22.36337385809609,13.478015346904002 A 65.21697318436681 65.21697318436681 0 0 1 21.40063509461097,12.933012701892217 Z M 82.20920367090673,15.258295125603993 L 81.77679964159995,14.356615162735096 A 64.21697318436681 64.21697318436681 0 0 0 82.75499981816881,13.877268737965013 L 81.41208952330743,11.194622294626772 L 89.23832656843494,11.190919123844832 L 84.54554687798398,17.454130662416002 L 83.2026365831226,14.771484219077761 A 65.21697318436681 65.21697318436681 0 0 1 82.20920367090673,15.258295125603993"/><text text-anchor="middle" pointer-events="none" font-size="8px" fill="#000000" x="52.08478753374405" y="24.14181435840777" font-family="sans-serif">PublicTransport</text></g><g class="relationship" transform="translate(99.737651567744 23.239016431456417) rotate(408.71822803781254)"><path class="outline" fill="#A5ABB6" stroke="none" d="M 25 0.5 L 50.45075773434584 0.5 L 50.45075773434584 -0.5 L 25 -0.5 Z M 69.78669523434584 0.5 L 95.23745296869168 0.5 L 95.23745296869168 3.5 L 102.23745296869168 0 L 95.23745296869168 -3.5 L 95.23745296869168 -0.5 L 69.78669523434584 -0.5 Z"/><text text-anchor="middle" pointer-events="none" font-size="8px" fill="#000000" x="60.11872648434584" y="3" font-family="sans-serif">trek</text></g><g class="relationship" transform="translate(92.73957802406001 -88.1350554204781) rotate(446.4046061981718)"><path class="outline" fill="#A5ABB6" stroke="none" d="M 25 0.5 L 41.29099742312681 0.5 L 41.29099742312681 -0.5 L 25 -0.5 Z M 63.30271617312681 0.5 L 79.59371359625362 0.5 L 79.59371359625362 3.5 L 86.59371359625362 0 L 79.59371359625362 -3.5 L 79.59371359625362 -0.5 L 63.30271617312681 -0.5 Z"/><text text-anchor="middle" pointer-events="none" font-size="8px" fill="#000000" x="52.29685679812681" y="3" font-family="sans-serif">road</text></g><g class="relationship" transform="translate(92.73957802406001 -88.1350554204781) rotate(446.4046061981718)"><path class="outline" fill="#A5ABB6" stroke="none" d="M 21.40063509461097,-12.933012701892217 L 21.90063509461097,-12.06698729810778 A 64.21697318436681 64.21697318436681 0 0 1 42.56751578305963,-19.64292859394819 L 42.38934472739673,-20.626928123889115 A 65.21697318436681 65.21697318436681 0 0 0 21.40063509461097,-12.933012701892217 Z M 61.7936922892789,-21.20416412665385 L 61.67432810810972,-20.211313587925183 A 64.21697318436681 64.21697318436681 0 0 1 82.75499981816881,-13.877268737965013 L 81.41208952330743,-11.194622294626772 L 89.23832656843494,-11.190919123844832 L 84.54554687798398,-17.454130662416002 L 83.2026365831226,-14.771484219077761 A 65.21697318436681 65.21697318436681 0 0 0 61.7936922892789,-21.20416412665385"/><text text-anchor="middle" pointer-events="none" font-size="8px" fill="#000000" x="52.08478753374402" y="-18.14181435840777" font-family="sans-serif">trek</text></g><g class="relationship" transform="translate(99.737651567744 23.239016431456417) rotate(516.803343266404)"><path class="outline" fill="#A5ABB6" stroke="none" d="M 24.018736134675446,-6.953439040707552 L 24.277555179777966,-5.987513214418485 A 140.94321613453081 140.94321613453081 0 0 1 49.193456644447,-10.31493031171297 L 49.111417313530126,-11.311559404295934 A 141.94321613453081 141.94321613453081 0 0 0 24.018736134675446,-6.953439040707552 Z M 68.49876036296823,-11.578721114355034 L 68.44421449046781,-10.580209848623298 A 140.94321613453081 140.94321613453081 0 0 1 93.46989779051754,-6.940998409772047 L 92.7735843056763,-4.022925838565454 L 100.39478603747312,-5.802612373676935 L 94.39831577030584,-10.831761838047504 L 93.7020022854646,-7.913689266840911 A 141.94321613453081 141.94321613453081 0 0 0 68.49876036296823,-11.578721114355034"/><text text-anchor="middle" pointer-events="none" font-size="8px" fill="#000000" x="58.8074112330611" y="-8.276609129228149" transform="rotate(180 58.8074112330611 -11.276609129228149)" font-family="sans-serif">trek</text></g><g class="relationship" transform="translate(-14.892474228140225 72.36163379833087) rotate(420.1997538147381)"><path class="outline" fill="#A5ABB6" stroke="none" d="M 24.018736134675446,-6.953439040707552 L 24.277555179777966,-5.987513214418485 A 116.66142783929305 116.66142783929305 0 0 1 43.09093387210963,-9.406204056922093 L 42.99337960012688,-10.401434263466243 A 117.66142783929305 117.66142783929305 0 0 0 24.018736134675446,-6.953439040707552 Z M 62.38756727307441,-10.696080128259908 L 62.32029108167509,-9.698345737717617 A 116.66142783929305 116.66142783929305 0 0 1 81.22883992233959,-6.852744634628385 L 80.54076968650058,-3.9327173487023694 L 88.15691529547345,-5.733918631991709 L 82.14626690345825,-10.746114349196407 L 81.45819666761925,-7.826087063270391 A 117.66142783929305 117.66142783929305 0 0 0 62.38756727307441,-10.696080128259908"/><text text-anchor="middle" pointer-events="none" font-size="8px" fill="#000000" x="52.69198692676345" y="-7.449136207531595" font-family="sans-serif">trek</text></g><g class="relationship" transform="translate(41.012782640771064 169.97674250451533) rotate(393.09348023721344)"><path class="outline" fill="#A5ABB6" stroke="none" d="M 24.018736134675446,6.953439040707552 L 24.277555179777966,5.987513214418485 A 122.56947795396208 122.56947795396208 0 0 0 44.57201147306543,9.629967838458597 L 44.47876755018796,10.625611133442504 A 123.56947795396208 123.56947795396208 0 0 1 24.018736134675446,6.953439040707552 Z M 63.871169213312356,10.91307748092089 L 63.80747792869183,9.915107831951843 A 122.56947795396208 122.56947795396208 0 0 0 84.20098242415669,6.8757976599229504 L 83.51075890834278,3.9562786073703755 L 91.12823079941501,5.751862631782587 L 85.1212804452419,10.76848972999305 L 84.43105692942798,7.848970677440475 A 123.56947795396208 123.56947795396208 0 0 1 63.871169213312356,10.91307748092089"/><text text-anchor="middle" pointer-events="none" font-size="8px" fill="#000000" x="54.17673086851246" y="13.650447429267999" font-family="sans-serif">trek</text></g><g class="relationship" transform="translate(99.737651567744 23.239016431456417) rotate(516.803343266404)"><path class="outline" fill="#A5ABB6" stroke="none" d="M 24.018736134675446,6.953439040707552 L 24.277555179777966,5.987513214418485 A 140.94321613453081 140.94321613453081 0 0 0 35.796285987921095,8.562305385093623 L 35.61919298202822,9.54649950581566 A 141.94321613453081 141.94321613453081 0 0 1 24.018736134675446,6.953439040707552 Z M 82.03449804110603,10.186112280030045 L 81.88459193902403,9.197412042061728 A 140.94321613453081 140.94321613453081 0 0 0 93.46989779051754,6.940998409772047 L 92.7735843056763,4.022925838565454 L 100.39478603747312,5.802612373676935 L 94.39831577030584,10.831761838047504 L 93.7020022854646,7.913689266840911 A 141.94321613453081 141.94321613453081 0 0 1 82.03449804110603,10.186112280030045"/><text text-anchor="middle" pointer-events="none" font-size="8px" fill="#000000" x="58.807411233061174" y="14.276609129228149" transform="rotate(180 58.807411233061174 11.276609129228149)" font-family="sans-serif">twowheeler</text></g><g class="relationship" transform="translate(-14.892474228140225 72.36163379833087) rotate(420.1997538147381)"><path class="outline" fill="#A5ABB6" stroke="none" d="M 24.018736134675446,6.953439040707552 L 24.277555179777966,5.987513214418485 A 116.66142783929305 116.66142783929305 0 0 0 29.754991084573927,7.3142542397475125 L 29.54312359840776,8.291552642644817 A 117.66142783929305 117.66142783929305 0 0 1 24.018736134675446,6.953439040707552 Z M 75.8957096463666,8.99576351405831 L 75.71362826671354,8.012480049749243 A 116.66142783929305 116.66142783929305 0 0 0 81.22883992233959,6.852744634628385 L 80.54076968650058,3.9327173487023694 L 88.15691529547345,5.733918631991709 L 82.14626690345825,10.746114349196407 L 81.45819666761925,7.826087063270391 A 117.66142783929305 117.66142783929305 0 0 1 75.8957096463666,8.99576351405831"/><text text-anchor="middle" pointer-events="none" font-size="8px" fill="#000000" x="52.691986926763455" y="13.449136207531595" font-family="sans-serif">twowheeler</text></g><g class="relationship" transform="translate(41.012782640771064 169.97674250451533) rotate(393.09348023721344)"><path class="outline" fill="#A5ABB6" stroke="none" d="M 24.018736134675446,-6.953439040707552 L 24.277555179777966,-5.987513214418485 A 122.56947795396208 122.56947795396208 0 0 1 31.218088156290875,-7.6323605888727 L 31.01589440724387,-8.61170612944882 A 123.56947795396208 123.56947795396208 0 0 0 24.018736134675446,-6.953439040707552 Z M 77.38782073388636,-9.299107747784973 L 77.21474441548257,-8.31419933173413 A 122.56947795396208 122.56947795396208 0 0 1 84.20098242415669,-6.8757976599229504 L 83.51075890834278,-3.9562786073703755 L 91.12823079941501,-5.751862631782587 L 85.1212804452419,-10.76848972999305 L 84.43105692942798,-7.848970677440475 A 123.56947795396208 123.56947795396208 0 0 0 77.38782073388636,-9.299107747784973"/><text text-anchor="middle" pointer-events="none" font-size="8px" fill="#000000" x="54.17673086851242" y="-7.650447429267999" font-family="sans-serif">twowheeler</text></g><g class="relationship" transform="translate(99.737651567744 23.239016431456417) rotate(323.5310616233677)"><path class="outline" fill="#A5ABB6" stroke="none" d="M 25 0.5 L 44.29469861453065 0.5 L 44.29469861453065 -0.5 L 25 -0.5 Z M 63.63063611453065 0.5 L 82.9253347290613 0.5 L 82.9253347290613 3.5 L 89.9253347290613 0 L 82.9253347290613 -3.5 L 82.9253347290613 -0.5 L 63.63063611453065 -0.5 Z"/><text text-anchor="middle" pointer-events="none" font-size="8px" fill="#000000" x="53.96266736453065" y="3" font-family="sans-serif">trek</text></g><g class="relationship" transform="translate(-14.892474228140225 72.36163379833087) rotate(473.9678232713099)"><path class="outline" fill="#A5ABB6" stroke="none" d="M 24.018736134675446,-6.953439040707552 L 24.277555179777966,-5.987513214418485 A 127.17661683698243 127.17661683698243 0 0 1 45.72874291508424,-9.803152319939812 L 45.6385962900289,-10.799080824397393 A 128.17661683698242 128.17661683698242 0 0 0 24.018736134675446,-6.953439040707552 Z M 65.02965890726348,-11.081179708153726 L 64.96852160007168,-10.083050342956355 A 127.17661683698243 127.17661683698243 0 0 1 86.52162680198006,-6.893032600935568 L 85.82979346447246,-3.9738946060622378 L 93.44825434626911,-5.765277812563379 L 87.44407125199021,-10.785216594100008 L 86.7522379144826,-7.866078599226679 A 128.17661683698242 128.17661683698242 0 0 0 65.02965890726348,-11.081179708153726"/><text text-anchor="middle" pointer-events="none" font-size="8px" fill="#000000" x="55.33605792168132" y="-7.807442698188254" transform="rotate(180 55.33605792168132 -10.807442698188254)" font-family="sans-serif">trek</text></g><g class="relationship" transform="translate(-62.735209795251286 179.98079084070324) rotate(354.4922011208737)"><path class="outline" fill="#A5ABB6" stroke="none" d="M 21.40063509461097,12.933012701892217 L 21.90063509461097,12.06698729810778 A 56.59983180085464 56.59983180085464 0 0 0 38.8981929770926,18.5099694604573 L 38.698504079469856,19.489828809632584 A 57.59983180085464 57.59983180085464 0 0 1 21.40063509461097,12.933012701892217 Z M 58.100927986986555,20.105547669039446 L 57.96376826368627,19.11499872511785 A 56.59983180085464 56.59983180085464 0 0 0 75.33563900697463,13.762700154302783 L 74.00338656670024,11.074744902557898 L 81.82957666775843,11.102103668953331 L 77.11197559400716,17.346640489962628 L 75.77972315373277,14.658685238217744 A 57.59983180085464 57.59983180085464 0 0 1 58.100927986986555,20.105547669039446"/><text text-anchor="middle" pointer-events="none" font-size="8px" fill="#000000" x="48.389449758068224" y="23.121197288250023" font-family="sans-serif">trek</text></g><g class="relationship" transform="translate(-14.892474228140225 72.36163379833087) rotate(473.9678232713099)"><path class="outline" fill="#A5ABB6" stroke="none" d="M 24.018736134675446,6.953439040707552 L 24.277555179777966,5.987513214418485 A 127.17661683698243 127.17661683698243 0 0 0 32.36236077400876,7.87330883976378 L 32.16711320765218,8.854062829218734 A 128.17661683698242 128.17661683698242 0 0 1 24.018736134675446,6.953439040707552 Z M 78.55202077222658,9.528864974175818 L 78.38538558095378,8.54284635719668 A 127.17661683698243 127.17661683698243 0 0 0 86.52162680198006,6.893032600935568 L 85.82979346447246,3.9738946060622378 L 93.44825434626911,5.765277812563379 L 87.44407125199021,10.785216594100008 L 86.7522379144826,7.866078599226679 A 128.17661683698242 128.17661683698242 0 0 1 78.55202077222658,9.528864974175818"/><text text-anchor="middle" pointer-events="none" font-size="8px" fill="#000000" x="55.336057921681366" y="13.807442698188254" transform="rotate(180 55.336057921681366 10.807442698188254)" font-family="sans-serif">twowheeler</text></g><g class="relationship" transform="translate(-62.735209795251286 179.98079084070324) rotate(354.4922011208737)"><path class="outline" fill="#A5ABB6" stroke="none" d="M 25 0.5 L 37.60874250781624 0.5 L 37.60874250781624 -0.5 L 25 -0.5 Z M 59.62046125781624 0.5 L 72.22920376563248 0.5 L 72.22920376563248 3.5 L 79.22920376563248 0 L 72.22920376563248 -3.5 L 72.22920376563248 -0.5 L 59.62046125781624 -0.5 Z"/><text text-anchor="middle" pointer-events="none" font-size="8px" fill="#000000" x="48.61460188281624" y="3" font-family="sans-serif">road</text></g><g class="relationship" transform="translate(-62.735209795251286 179.98079084070324) rotate(354.4922011208737)"><path class="outline" fill="#A5ABB6" stroke="none" d="M 21.40063509461097,-12.933012701892217 L 21.90063509461097,-12.06698729810778 A 56.59983180085464 56.59983180085464 0 0 1 26.16430778930221,-14.292655275359607 L 25.739637919428617,-15.1980035517823 A 57.59983180085464 57.59983180085464 0 0 0 21.40063509461097,-12.933012701892217 Z M 71.30584039879375,-16.64400691465221 L 70.93942805445349,-15.713554339872019 A 56.59983180085464 56.59983180085464 0 0 1 75.33563900697463,-13.762700154302783 L 74.00338656670024,-11.074744902557898 L 81.82957666775843,-11.102103668953331 L 77.11197559400716,-17.346640489962628 L 75.77972315373277,-14.658685238217744 A 57.59983180085464 57.59983180085464 0 0 0 71.30584039879375,-16.64400691465221"/><text text-anchor="middle" pointer-events="none" font-size="8px" fill="#000000" x="48.389449758068224" y="-17.121197288250023" font-family="sans-serif">twowheeler</text></g><g class="relationship" transform="translate(-62.735209795251286 179.98079084070324) rotate(406.15802861790854)"><path class="outline" fill="#A5ABB6" stroke="none" d="M 25 0.5 L 48.38576550272823 0.5 L 48.38576550272823 -0.5 L 25 -0.5 Z M 67.72170300272823 0.5 L 91.10746850545647 0.5 L 91.10746850545647 3.5 L 98.10746850545647 0 L 91.10746850545647 -3.5 L 91.10746850545647 -0.5 L 67.72170300272823 -0.5 Z"/><text text-anchor="middle" pointer-events="none" font-size="8px" fill="#000000" x="58.05373425272823" y="3" font-family="sans-serif">trek</text></g><g class="relationship" transform="translate(22.537850373537676 268.7724233928309) rotate(342.7574450580544)"><path class="outline" fill="#A5ABB6" stroke="none" d="M 25 0.5 L 47.144078057645594 0.5 L 47.144078057645594 -0.5 L 25 -0.5 Z M 66.4800155576456 0.5 L 88.62409361529119 0.5 L 88.62409361529119 3.5 L 95.62409361529119 0 L 88.62409361529119 -3.5 L 88.62409361529119 -0.5 L 66.4800155576456 -0.5 Z"/><text text-anchor="middle" pointer-events="none" font-size="8px" fill="#000000" x="56.812046807645594" y="3" font-family="sans-serif">trek</text></g></g><g class="layer nodes"><g class="node" transform="translate(92.73957802406001,-88.1350554204781)"><circle class="outline" cx="0" cy="0" r="25" fill="#F79767" stroke="#f36924" stroke-width="2px"/><text text-anchor="middle" pointer-events="none" font-family="sans-serif" dy="1.5625" font-size="25" fill="#FFFFFF"/><text text-anchor="middle" pointer-events="none" y="5" font-size="10px" fill="#FFFFFF" font-family="sans-serif"> Darjeeling</text></g><g class="node" transform="translate(137.74091257484554,233.0173339655602)"><circle class="outline" cx="0" cy="0" r="25" fill="#57C7E3" stroke="#23b3d7" stroke-width="2px"/><text text-anchor="middle" pointer-events="none" font-family="sans-serif" dy="1.5625" font-size="25" fill="#2A2C34"/><text text-anchor="middle" pointer-events="none" y="5" font-size="10px" fill="#2A2C34" font-family="sans-serif"> Sandak…</text></g><g class="node" transform="translate(192.15821672609496,-45.07109774205224)"><circle class="outline" cx="0" cy="0" r="25" fill="#F16667" stroke="#eb2728" stroke-width="2px"/><text text-anchor="middle" pointer-events="none" font-family="sans-serif" dy="1.5625" font-size="25" fill="#FFFFFF"/><text text-anchor="middle" pointer-events="none" y="5" font-size="10px" fill="#FFFFFF" font-family="sans-serif"> Tumbling</text></g><g class="node" transform="translate(266.74146466523354,40.53003253357908)"><circle class="outline" cx="0" cy="0" r="25" fill="#F16667" stroke="#eb2728" stroke-width="2px"/><text text-anchor="middle" pointer-events="none" font-family="sans-serif" dy="1.5625" font-size="25" fill="#FFFFFF"/><text text-anchor="middle" pointer-events="none" y="5" font-size="10px" fill="#FFFFFF" font-family="sans-serif"> Gairibus</text></g><g class="node" transform="translate(183.68416791040445,118.85466280741032)"><circle class="outline" cx="0" cy="0" r="25" fill="#F16667" stroke="#eb2728" stroke-width="2px"/><text text-anchor="middle" pointer-events="none" font-family="sans-serif" dy="1.5625" font-size="25" fill="#FFFFFF"/><text text-anchor="middle" pointer-events="none" y="5" font-size="10px" fill="#FFFFFF" font-family="sans-serif"> BhikeBh…</text></g><g class="node" transform="translate(99.737651567744,23.239016431456417)"><circle class="outline" cx="0" cy="0" r="25" fill="#F79767" stroke="#f36924" stroke-width="2px"/><text text-anchor="middle" pointer-events="none" font-family="sans-serif" dy="1.5625" font-size="25" fill="#FFFFFF"/><text text-anchor="middle" pointer-events="none" y="5" font-size="10px" fill="#FFFFFF" font-family="sans-serif"> Rimbik</text></g><g class="node" transform="translate(-14.892474228140225,72.36163379833087)"><circle class="outline" cx="0" cy="0" r="25" fill="#F16667" stroke="#eb2728" stroke-width="2px"/><text text-anchor="middle" pointer-events="none" font-family="sans-serif" dy="1.5625" font-size="25" fill="#FFFFFF"/><text text-anchor="middle" pointer-events="none" y="5" font-size="10px" fill="#FFFFFF" font-family="sans-serif"> Sirikhola</text></g><g class="node" transform="translate(41.012782640771064,169.97674250451533)"><circle class="outline" cx="0" cy="0" r="25" fill="#F16667" stroke="#eb2728" stroke-width="2px"/><text text-anchor="middle" pointer-events="none" font-family="sans-serif" dy="1.5625" font-size="25" fill="#FFFFFF"/><text text-anchor="middle" pointer-events="none" y="5" font-size="10px" fill="#FFFFFF" font-family="sans-serif"> Gurdum</text></g><g class="node" transform="translate(-62.735209795251286,179.98079084070324)"><circle class="outline" cx="0" cy="0" r="25" fill="#F16667" stroke="#eb2728" stroke-width="2px"/><text text-anchor="middle" pointer-events="none" font-family="sans-serif" dy="1.5625" font-size="25" fill="#FFFFFF"/><text text-anchor="middle" pointer-events="none" y="5" font-size="10px" fill="#FFFFFF" font-family="sans-serif"> Rammam</text></g><g class="node" transform="translate(22.537850373537676,268.7724233928309)"><circle class="outline" cx="0" cy="0" r="25" fill="#57C7E3" stroke="#23b3d7" stroke-width="2px"/><text text-anchor="middle" pointer-events="none" font-family="sans-serif" dy="1.5625" font-size="25" fill="#2A2C34"/><text text-anchor="middle" pointer-events="none" y="5" font-size="10px" fill="#2A2C34" font-family="sans-serif"> Sabargr…</text></g></g></svg>