<svg xmlns="http://www.w3.org/2000/svg" width="280.3721923828125" height="278.79083251953125" viewBox="-46.236854553222656 -46.43185043334961 280.3721923828125 278.79083251953125"><title>Neo4j Graph Visualization</title><desc>Created using Neo4j (http://www.neo4j.com/)</desc><g class="layer relationships"><g class="relationship" transform="translate(172.731718749755 173.93875902199312) rotate(225.85694030631078)"><path class="outline" fill="#A5ABB6" stroke="none" d="M 25 0.5 L 32.05261258613325 0.5 L 32.05261258613325 -0.5 L 25 -0.5 Z M 77.61511258613325 0.5 L 84.6677251722665 0.5 L 84.6677251722665 3.5 L 91.6677251722665 0 L 84.6677251722665 -3.5 L 84.6677251722665 -0.5 L 77.61511258613325 -0.5 Z"/><text text-anchor="middle" pointer-events="none" font-size="8px" fill="#000000" x="54.83386258613325" y="3" transform="rotate(180 54.83386258613325 0)" font-family="sans-serif">ACTED_IN</text></g><g class="relationship" transform="translate(205.13534221340265 75.16472151439606) rotate(532.455569982891)"><path class="outline" fill="#A5ABB6" stroke="none" d="M 25 0.5 L 30.379492722215865 0.5 L 30.379492722215865 -0.5 L 25 -0.5 Z M 77.27011772221587 0.5 L 82.64961044443173 0.5 L 82.64961044443173 3.5 L 89.64961044443173 0 L 82.64961044443173 -3.5 L 82.64961044443173 -0.5 L 77.27011772221587 -0.5 Z"/><text text-anchor="middle" pointer-events="none" font-size="8px" fill="#000000" x="53.824805222215865" y="3" transform="rotate(180 53.824805222215865 0)" font-family="sans-serif">DIRECTED</text></g><g class="relationship" transform="translate(129.55731698199972 -17.431849748097207) rotate(469.4803329439258)"><path class="outline" fill="#A5ABB6" stroke="none" d="M 25 0.5 L 35.70625463264313 0.5 L 35.70625463264313 -0.5 L 25 -0.5 Z M 71.47969213264312 0.5 L 82.18594676528626 0.5 L 82.18594676528626 3.5 L 89.18594676528626 0 L 82.18594676528626 -3.5 L 82.18594676528626 -0.5 L 71.47969213264312 -0.5 Z"/><text text-anchor="middle" pointer-events="none" font-size="8px" fill="#000000" x="53.59297338264313" y="3" transform="rotate(180 53.59297338264313 0)" font-family="sans-serif">WROTE</text></g><g class="relationship" transform="translate(11.239881303772318 7.576238672848043) rotate(405.845259471622)"><path class="outline" fill="#A5ABB6" stroke="none" d="M 25 0.5 L 31.31169869703924 0.5 L 31.31169869703924 -0.5 L 25 -0.5 Z M 76.87419869703925 0.5 L 83.18589739407848 0.5 L 83.18589739407848 3.5 L 90.18589739407848 0 L 83.18589739407848 -3.5 L 83.18589739407848 -0.5 L 76.87419869703925 -0.5 Z"/><text text-anchor="middle" pointer-events="none" font-size="8px" fill="#000000" x="54.09294869703924" y="3" font-family="sans-serif">ACTED_IN</text></g><g class="relationship" transform="translate(-17.236855932419534 125.08121488945481) rotate(342.21959765908616)"><path class="outline" fill="#A5ABB6" stroke="none" d="M 25 0.5 L 30.802975751257293 0.5 L 30.802975751257293 -0.5 L 25 -0.5 Z M 76.36547575125729 0.5 L 82.16845150251459 0.5 L 82.16845150251459 3.5 L 89.16845150251459 0 L 82.16845150251459 -3.5 L 82.16845150251459 -0.5 L 76.36547575125729 -0.5 Z"/><text text-anchor="middle" pointer-events="none" font-size="8px" fill="#000000" x="53.58422575125729" y="3" font-family="sans-serif">ACTED_IN</text></g><g class="relationship" transform="translate(73.04335142039999 203.35898405827092) rotate(279.2542544117482)"><path class="outline" fill="#A5ABB6" stroke="none" d="M 25 0.5 L 35.92996339816493 0.5 L 35.92996339816493 -0.5 L 25 -0.5 Z M 71.70340089816493 0.5 L 82.63336429632986 0.5 L 82.63336429632986 3.5 L 89.63336429632986 0 L 82.63336429632986 -3.5 L 82.63336429632986 -0.5 L 71.70340089816493 -0.5 Z"/><text text-anchor="middle" pointer-events="none" font-size="8px" fill="#000000" x="53.81668214816493" y="3" font-family="sans-serif">WROTE</text></g></g><g class="layer nodes"><g class="node" transform="translate(172.731718749755,173.93875902199312)"><circle class="outline" cx="0" cy="0" r="25" fill="#57C7E3" stroke="#23b3d7" stroke-width="2px"/><text text-anchor="middle" pointer-events="none" font-family="sans-serif" dy="1.5625" font-size="25" fill="#2A2C34"/><text text-anchor="middle" pointer-events="none" font-family="sans-serif" dy="1.5625" font-size="25" fill="#2A2C34"/><text text-anchor="middle" pointer-events="none" x="0" y="0" font-size="10px" fill="#2A2C34" font-family="sans-serif"> Hugo</text><text text-anchor="middle" pointer-events="none" x="0" y="10" font-size="10px" fill="#2A2C34" font-family="sans-serif"> Weaving</text></g><g class="node" transform="translate(91.47821369208071,90.21763855222156)"><circle class="outline" cx="0" cy="0" r="25" fill="#F79767" stroke="#f36924" stroke-width="2px"/><text text-anchor="middle" pointer-events="none" font-family="sans-serif" dy="1.5625" font-size="25" fill="#FFFFFF"/><text text-anchor="middle" pointer-events="none" font-family="sans-serif" dy="1.5625" font-size="25" fill="#FFFFFF"/><text text-anchor="middle" pointer-events="none" font-family="sans-serif" dy="1.5625" font-size="25" fill="#FFFFFF"/><text text-anchor="middle" pointer-events="none" x="0" y="-5" font-size="10px" fill="#FFFFFF" font-family="sans-serif"> Captain</text><text text-anchor="middle" pointer-events="none" x="0" y="5" font-size="10px" fill="#FFFFFF" font-family="sans-serif"> America:</text><text text-anchor="middle" pointer-events="none" x="0" y="15" font-size="10px" fill="#FFFFFF" font-family="sans-serif"> The Fi…</text></g><g class="node" transform="translate(205.13534221340265,75.16472151439606)"><circle class="outline" cx="0" cy="0" r="25" fill="#57C7E3" stroke="#23b3d7" stroke-width="2px"/><text text-anchor="middle" pointer-events="none" font-family="sans-serif" dy="1.5625" font-size="25" fill="#2A2C34"/><text text-anchor="middle" pointer-events="none" font-family="sans-serif" dy="1.5625" font-size="25" fill="#2A2C34"/><text text-anchor="middle" pointer-events="none" x="0" y="0" font-size="10px" fill="#2A2C34" font-family="sans-serif"> Joe</text><text text-anchor="middle" pointer-events="none" x="0" y="10" font-size="10px" fill="#2A2C34" font-family="sans-serif"> Johnston</text></g><g class="node" transform="translate(129.55731698199972,-17.431849748097207)"><circle class="outline" cx="0" cy="0" r="25" fill="#57C7E3" stroke="#23b3d7" stroke-width="2px"/><text text-anchor="middle" pointer-events="none" font-family="sans-serif" dy="1.5625" font-size="25" fill="#2A2C34"/><text text-anchor="middle" pointer-events="none" font-family="sans-serif" dy="1.5625" font-size="25" fill="#2A2C34"/><text text-anchor="middle" pointer-events="none" x="0" y="0" font-size="10px" fill="#2A2C34" font-family="sans-serif"> Stephen</text><text text-anchor="middle" pointer-events="none" x="0" y="10" font-size="10px" fill="#2A2C34" font-family="sans-serif"> McFeely</text></g><g class="node" transform="translate(11.239881303772318,7.576238672848043)"><circle class="outline" cx="0" cy="0" r="25" fill="#57C7E3" stroke="#23b3d7" stroke-width="2px"/><text text-anchor="middle" pointer-events="none" font-family="sans-serif" dy="1.5625" font-size="25" fill="#2A2C34"/><text text-anchor="middle" pointer-events="none" font-family="sans-serif" dy="1.5625" font-size="25" fill="#2A2C34"/><text text-anchor="middle" pointer-events="none" font-family="sans-serif" dy="1.5625" font-size="25" fill="#2A2C34"/><text text-anchor="middle" pointer-events="none" x="0" y="-5" font-size="10px" fill="#2A2C34" font-family="sans-serif"> Samuel</text><text text-anchor="middle" pointer-events="none" x="0" y="5" font-size="10px" fill="#2A2C34" font-family="sans-serif"> L.</text><text text-anchor="middle" pointer-events="none" x="0" y="15" font-size="10px" fill="#2A2C34" font-family="sans-serif"> Jackson</text></g><g class="node" transform="translate(-17.236855932419534,125.08121488945481)"><circle class="outline" cx="0" cy="0" r="25" fill="#57C7E3" stroke="#23b3d7" stroke-width="2px"/><text text-anchor="middle" pointer-events="none" font-family="sans-serif" dy="1.5625" font-size="25" fill="#2A2C34"/><text text-anchor="middle" pointer-events="none" font-family="sans-serif" dy="1.5625" font-size="25" fill="#2A2C34"/><text text-anchor="middle" pointer-events="none" x="0" y="0" font-size="10px" fill="#2A2C34" font-family="sans-serif"> Chris</text><text text-anchor="middle" pointer-events="none" x="0" y="10" font-size="10px" fill="#2A2C34" font-family="sans-serif"> Evans</text></g><g class="node" transform="translate(73.04335142039999,203.35898405827092)"><circle class="outline" cx="0" cy="0" r="25" fill="#57C7E3" stroke="#23b3d7" stroke-width="2px"/><text text-anchor="middle" pointer-events="none" font-family="sans-serif" dy="1.5625" font-size="25" fill="#2A2C34"/><text text-anchor="middle" pointer-events="none" x="0" y="5" font-size="10px" fill="#2A2C34" font-family="sans-serif"> Christop…</text></g></g></svg>